<svg id="Layer_2" data-name="Layer 2" xmlns="http://www.w3.org/2000/svg" viewBox="0 0 900 900"><defs><style>.cls-1{fill:#fff;}</style></defs><title>Artboard 1 copy</title><circle class="cls-1" cx="195" cy="719" r="46"/><path d="M255.57,658.43c-3.3-3.3-9.36-3.24-18,.18-7.75,3.06-17.32,8.75-27.72,16.47a46.36,46.36,0,0,0-58.76,58.75c-7.72,10.39-13.41,20-16.47,27.72-3.42,8.66-3.48,14.73-.18,18a9.26,9.26,0,0,0,6.84,2.43,31.66,31.66,0,0,0,11.18-2.61c7.75-3.06,17.32-8.75,27.71-16.46a46.36,46.36,0,0,0,58.76-58.76c7.72-10.39,13.41-20,16.47-27.72C258.81,667.79,258.87,661.73,255.57,658.43ZM152.29,709.7a43.72,43.72,0,0,1,79.44-14.39c-5.59,10-15.3,22.18-26.77,33.65s-23.68,21.18-33.65,26.77A44,44,0,0,1,157.85,742a43.32,43.32,0,0,1-4-8.41A43.81,43.81,0,0,1,152.29,709.7Zm80.86-17a46.58,46.58,0,0,0-11.81-11.81c7.06-3.56,12.35-4.52,14.34-2.53S236.71,685.6,233.15,692.66Zm-76.3,52.68a46.57,46.57,0,0,0,11.81,11.81c-7.06,3.56-12.35,4.52-14.34,2.53S153.28,752.4,156.85,745.34Zm80.86-17A43.7,43.7,0,0,1,182.78,761a296,296,0,0,0,28.79-25.4A296,296,0,0,0,237,706.78,43.82,43.82,0,0,1,237.71,728.3Zm15.21-52.82c-3,7.67-8.75,17.24-16.54,27.66a288.94,288.94,0,0,1-26.7,30.54,289,289,0,0,1-30.54,26.7c-10.42,7.79-20,13.51-27.66,16.54-7.37,2.91-12.76,3.18-15.17.77s-2.14-7.8.77-15.17c2.84-7.19,8-16.05,15.1-25.72a46,46,0,0,0,3,6c-4.91,9.19-5.86,15.68-2.75,18.79a6.85,6.85,0,0,0,5.05,1.79c3.59,0,8.45-1.65,14.41-4.91,10.3-5.64,23-15.7,34.94-27.6s22-24.64,27.6-34.94c5.23-9.54,6.3-16.28,3.11-19.46s-9.6-2.16-18.79,2.75a46,46,0,0,0-6-3c9.67-7.06,18.53-12.27,25.72-15.1,7.37-2.91,12.76-3.18,15.17-.77S255.83,668.11,252.92,675.48Z"/></svg>