<svg id="Layer_2" data-name="Layer 2" xmlns="http://www.w3.org/2000/svg" viewBox="0 0 900 900"><defs><style>.cls-1{fill:#fff;}</style></defs><title>Artboard 1 copy 3</title><circle class="cls-1" cx="152" cy="242" r="46"/><path d="M152.15,192.85a48.58,48.58,0,1,0,48.58,48.58A48.63,48.63,0,0,0,152.15,192.85Zm33.74,17.75c-10.61,2-18.21,1.1-22.63-2.56-5.59-4.63-13.9-8.07-24.76-10.26a45.69,45.69,0,0,1,47.39,12.82Zm-69.72,2.64a46.83,46.83,0,0,0,7.32,3.27l.5.16c4.1,1.33,9.34,3,13.69,3,3.56,0,6.52-1.14,7.75-4.56a5.11,5.11,0,0,0-.08-4.16c-1.3-2.57-4.81-3.61-9.25-4.93-1-.31-2.11-.63-3.21-1-1.54-.5-3.69-1.08-6.13-1.66a45.71,45.71,0,0,1,6.56-3.66c12.51,2,22.22,5.6,28.11,10.48,3.4,2.81,8.26,4.22,14.54,4.22a60.86,60.86,0,0,0,12-1.37,45.92,45.92,0,0,1,3,4.26c-2.79,0-5.53.07-8.3.13-11.7.22-18.44,3.42-25,6.52-5.82,2.76-11.32,5.37-20,5.37-6.91,0-16.26-2.45-27.08-7.07A45.76,45.76,0,0,1,116.17,213.25Zm7.55-7.6c3.35.74,6.35,1.52,8.3,2.15,1.13.36,2.22.69,3.27,1,3.48,1,6.77,2,7.51,3.48a2.25,2.25,0,0,1-.06,1.9c-1.66,4.6-9.73,2.42-17.87-.22l-.5-.16a42.39,42.39,0,0,1-6.32-2.79A46.12,46.12,0,0,1,123.72,205.65Zm-17.13,32c12.83,2,20.35,5.69,21.22,10.42a1.92,1.92,0,0,1-.4,1.56c-1,1.44-4.87,4.1-18.71,6a45.54,45.54,0,0,1-2.27-14.24C106.43,240.15,106.49,238.89,106.59,237.64Zm8.34,30.3a51.45,51.45,0,0,0,27.61-14c15.3-15.3,19.24-15.3,27.87-15.3,3.4,0,7.81,1.79,12.48,3.69,4.84,2,9.84,4,14.66,4.49a45.39,45.39,0,0,1-1.37,6.94,62.76,62.76,0,0,1-10.3-1c-8.22-1.24-17.54-2.65-28.86,3.12C143.94,262.53,136.84,274,133.1,283A46,46,0,0,1,114.93,267.94Zm24.6,17.43q-1.94-.56-3.8-1.28c3.55-8.51,10.26-19.4,22.59-25.68,10.51-5.35,19-4.08,27.14-2.84a71.3,71.3,0,0,0,9.82,1,45.54,45.54,0,0,1-4,8.4c-10.36-2.3-21.07-.6-31.84,5.07A80.41,80.41,0,0,0,139.54,285.37Zm12.62,1.77a45.73,45.73,0,0,1-9.4-1,76.56,76.56,0,0,1,18.05-13.58c9.79-5.15,19.48-6.84,28.84-5A45.7,45.7,0,0,1,152.15,287.14Zm45.65-43.2c-4.41-.47-9.19-2.41-13.83-4.29-4.94-2-9.6-3.9-13.56-3.9-9.79,0-14.38.62-29.89,16.13a48.91,48.91,0,0,1-27.32,13.45,45.6,45.6,0,0,1-3.5-6.93c11.16-1.62,17.72-3.95,20-7.11a4.79,4.79,0,0,0,.9-3.76c-1.41-7.6-13.36-11.11-23.71-12.73a45.35,45.35,0,0,1,2.6-9.87c11.32,4.84,20.8,7.3,28.2,7.3,9.37,0,15.15-2.74,21.27-5.65s12.7-6,23.78-6.24c3.29-.06,6.53-.11,9.87-.14a45.44,45.44,0,0,1,5.24,21.23Q197.87,242.69,197.8,243.95Z"/></svg>