<svg id="Layer_2" data-name="Layer 2" xmlns="http://www.w3.org/2000/svg" viewBox="0 0 900 900"><defs><style>.cls-1{fill:#fff;}</style></defs><title>Artboard 1</title><circle class="cls-1" cx="709" cy="189" r="64"/><circle class="cls-1" cx="623.75" cy="164.75" r="11.25"/><path d="M755,142.38a65.08,65.08,0,1,0,0,92A64.65,64.65,0,0,0,755,142.38Zm-2.71,89.33a61.2,61.2,0,0,1-19.11,13,111.94,111.94,0,0,0,23.22-20.52,1.91,1.91,0,0,0-2.9-2.49,110.56,110.56,0,0,1-36.15,27.4,62.19,62.19,0,0,1-8.37.57q-3,0-5.91-.28a108.92,108.92,0,0,0,24.33-12.2,1.91,1.91,0,1,0-2.13-3.18,105.13,105.13,0,0,1-30.54,14,60.52,60.52,0,0,1-7.07-2.14c1.95-.47,3.88-1,5.8-1.58a1.91,1.91,0,0,0-1.13-3.66,89.51,89.51,0,0,1-10.77,2.6,61.32,61.32,0,0,1-15.3-10.92c2.18-.43,4.35-.92,6.48-1.47a1.91,1.91,0,0,0-1-3.7c-2.85.74-5.76,1.36-8.67,1.87a60.8,60.8,0,0,1-11.28-18.59,109.65,109.65,0,0,0,11.12-3.49,1.91,1.91,0,0,0-1.34-3.58,105.79,105.79,0,0,1-11,3.44,61.37,61.37,0,0,1-1.91-7.92,109.59,109.59,0,0,0,23.68-10.9,1.91,1.91,0,1,0-2-3.26A105.73,105.73,0,0,1,648.09,195a61.79,61.79,0,0,1-.22-10.63,99.67,99.67,0,0,0,11.46-5.84,1.91,1.91,0,1,0-2-3.29,95.42,95.42,0,0,1-9.05,4.74A61.36,61.36,0,0,1,651,168.5a110.76,110.76,0,0,0,17.78-13.2,1.91,1.91,0,1,0-2.58-2.82,106.45,106.45,0,0,1-12.78,10A61.26,61.26,0,0,1,709,127.14a62.22,62.22,0,0,1,6.62.36c-.64,1.95-1.35,3.89-2.1,5.79A1.91,1.91,0,1,0,717,134.7c.87-2.19,1.67-4.43,2.39-6.67a60.83,60.83,0,0,1,7.9,1.91,105.18,105.18,0,0,1-14,31.94,1.91,1.91,0,1,0,3.2,2.09,109,109,0,0,0,14.42-32.77,60.89,60.89,0,0,1,18.59,11.32,103.32,103.32,0,0,1-4.36,16.87,1.91,1.91,0,1,0,3.61,1.27,107.39,107.39,0,0,0,4.06-15,60.87,60.87,0,0,1,15.68,28.54A107.5,107.5,0,0,1,754,205.53a1.91,1.91,0,1,0,3.16,2.16,109.84,109.84,0,0,0,12.77-25.21A61.16,61.16,0,0,1,752.27,231.7Z"/><path d="M623.3,153.65a11.3,11.3,0,1,0,11.3,11.3A11.31,11.31,0,0,0,623.3,153.65Zm0,18.78a7.48,7.48,0,1,1,7.48-7.48A7.48,7.48,0,0,1,623.3,172.42Z"/><path d="M706.34,211a1.91,1.91,0,1,0,2.19,3.13,107.53,107.53,0,0,0,28-28.82,112.42,112.42,0,0,0,5.88-9.92,1.91,1.91,0,0,0-3.39-1.78,108.43,108.43,0,0,1-5.67,9.59A103.74,103.74,0,0,1,706.34,211Z"/><path d="M690.74,220.21c-2.31,1.1-4.68,2.11-7.06,3A1.91,1.91,0,1,0,685,226.8c2.47-.94,4.93-2,7.33-3.14a1.91,1.91,0,1,0-1.64-3.46Z"/><path d="M727,177.48a1.91,1.91,0,1,0-3.12-2.21c-14.37,20.33-34.58,35.25-56.9,42a1.91,1.91,0,1,0,1.11,3.66C691.19,213.94,712.11,198.5,727,177.48Z"/><path d="M674.65,167.22a109.49,109.49,0,0,0,26.49-32.57,1.91,1.91,0,1,0-3.38-1.79,105.61,105.61,0,0,1-25.55,31.42,1.91,1.91,0,1,0,2.45,2.94Z"/><path d="M757.65,185.21a1.91,1.91,0,0,0,2.53-1c.4-.88.79-1.78,1.17-2.66a1.91,1.91,0,0,0-3.52-1.49c-.36.85-.74,1.72-1.13,2.57A1.91,1.91,0,0,0,757.65,185.21Z"/><path d="M756,188.61a1.91,1.91,0,0,0-2.6.74A115,115,0,0,1,744.49,203c-12.06,15.92-27.56,28-44.81,35a1.91,1.91,0,1,0,1.43,3.55c17.89-7.23,33.94-19.75,46.43-36.22a118.9,118.9,0,0,0,9.18-14.08A1.91,1.91,0,0,0,756,188.61Z"/><path d="M703.31,174.87c-1.93,2.17-4,4.3-6.13,6.32A1.91,1.91,0,1,0,699.8,184c2.22-2.1,4.36-4.31,6.37-6.56a1.91,1.91,0,1,0-2.86-2.54Z"/><path d="M689.15,169.9a1.91,1.91,0,1,0,2.62,2.79c9-8.46,15.36-16.85,19.48-25.67a1.91,1.91,0,0,0-3.47-1.62C703.87,153.77,697.78,161.78,689.15,169.9Z"/><path d="M682.88,175.46c-1.59,1.34-3.25,2.7-5.09,4.16a1.91,1.91,0,1,0,2.38,3c1.86-1.48,3.56-2.87,5.17-4.23a1.91,1.91,0,1,0-2.47-2.92Z"/></svg>