<svg id="Layer_2" data-name="Layer 2" xmlns="http://www.w3.org/2000/svg" viewBox="0 0 900 900"><defs><style>.cls-1{fill:#fff;}</style></defs><title>Artboard 1 copy 2</title><circle class="cls-1" cx="448" cy="823" r="46"/><path d="M483.74,788.88a48.1,48.1,0,1,0,14.09,34A47.79,47.79,0,0,0,483.74,788.88ZM451.63,842.4c-2.51,2.23-5.51,3.62-7.85,3.62a3.27,3.27,0,0,1-2.46-.89c-.75-.84-.84-2.31-.26-4a14.43,14.43,0,0,1,4.15-5.9c2.51-2.23,5.51-3.62,7.85-3.62a3.27,3.27,0,0,1,2.46.89C457.42,834.59,455,839.41,451.63,842.4ZM440,847.74a6.29,6.29,0,0,0,3.76,1.11c3,0,6.68-1.62,9.73-4.34,4.6-4.1,6.53-9.39,4.9-12.76l0,0,0,0A167.85,167.85,0,0,0,486,795.77a45,45,0,0,1,4.8,8A169.75,169.75,0,0,1,430.6,864a45,45,0,0,1-8-4.8A156.28,156.28,0,0,0,440,847.74Zm29.48-65.6A169.74,169.74,0,0,1,409,842.65a45.07,45.07,0,0,1-2.74-7.16,173.73,173.73,0,0,0,56.09-56.1A44.74,44.74,0,0,1,469.5,782.14Zm-51.78,8.74a45,45,0,0,1,32-13.26q2.12,0,4.2.19a167.89,167.89,0,0,1-21.72,26.76,1.41,1.41,0,1,0,2,2A174.29,174.29,0,0,0,457,778.21q1.23.2,2.43.46a171.23,171.23,0,0,1-53.95,54A45.28,45.28,0,0,1,417.71,790.88Zm-7.41,54.28a172.52,172.52,0,0,0,61.7-61.7,45.5,45.5,0,0,1,9.74,7.43q1.22,1.22,2.33,2.51a164.34,164.34,0,0,1-27.57,36.26,6.45,6.45,0,0,0-3.45-.9c-3,0-6.69,1.62-9.73,4.34a17.29,17.29,0,0,0-5,7.11,7.64,7.64,0,0,0-.1,5.32,152.72,152.72,0,0,1-18.05,11.73q-1.29-1.11-2.51-2.33A45.15,45.15,0,0,1,410.3,845.16Zm71.44,9.75a45,45,0,0,1-32,13.26,45.75,45.75,0,0,1-8.71-.83c3.68-2.32,7.35-4.84,10.92-7.54a1.41,1.41,0,1,0-1.7-2.26c-3.87,2.91-9.05,6.33-13.14,8.85q-1.64-.47-3.24-1.07A173.34,173.34,0,0,0,492.16,807q.6,1.6,1.08,3.26a179.81,179.81,0,0,1-17.07,23.2,1.41,1.41,0,1,0,2.12,1.87,165.59,165.59,0,0,0,15.89-21.17,45.76,45.76,0,0,1,.83,8.71A45,45,0,0,1,481.74,854.91Z"/><ellipse cx="448.42" cy="838.8" rx="5.46" ry="2.56" transform="translate(-444.45 511.02) rotate(-41.71)"/></svg>