<svg id="Layer_2" data-name="Layer 2" xmlns="http://www.w3.org/2000/svg" viewBox="0 0 900 900"><defs><style>.cls-1{fill:#fff;}</style></defs><title>Artboard 1 copy 4</title><polygon class="cls-1" points="713 139 702 158 680 164 696 181 692 199 713 192 730 199 730 179 745 164 723 157 713 139"/><path d="M755.29,159.93a7.14,7.14,0,0,0-5.75-4.85l-21-3.06L719.11,133a7.13,7.13,0,0,0-12.78,0L696.92,152l-21,3.06a7.13,7.13,0,0,0-3.95,12.16l15.21,14.83L683.57,203a7.13,7.13,0,0,0,10.34,7.51l18.81-9.89,18.81,9.89A7.13,7.13,0,0,0,741.87,203l-3.59-20.94,15.21-14.83A7.13,7.13,0,0,0,755.29,159.93Zm-29.65,14.54a7.13,7.13,0,0,0-2,6.31l1.78,10.4L716,186.28a7.14,7.14,0,0,0-6.63,0l-9.34,4.91,1.78-10.4a7.13,7.13,0,0,0-2-6.31l-7.56-7.36,10.44-1.52a7.13,7.13,0,0,0,5.37-3.9l4.67-9.46,4.67,9.46a7.12,7.12,0,0,0,5.37,3.9l10.44,1.52Z"/><polygon class="cls-1" points="784.26 109.39 771.86 115.35 758.36 110.7 760.65 125.14 752.23 133.05 765.57 136.83 771.9 146.45 778.95 136.09 792.01 133.62 783.09 122.24 784.26 109.39"/><path d="M798.77,135.14a4.47,4.47,0,0,0-1.27-4.54l-9.81-9,1.85-13.18a4.46,4.46,0,0,0-6.62-4.51l-11.59,6.55-12-5.83a4.46,4.46,0,0,0-6.33,4.9l2.65,13-9.24,9.58a4.46,4.46,0,0,0,2.71,7.54l13.22,1.51L768.63,153a4.46,4.46,0,0,0,8-.24l5.52-12.11,13.11-2.31A4.46,4.46,0,0,0,798.77,135.14Zm-20.48-2.92a4.47,4.47,0,0,0-3.29,2.54l-2.74,6-3.1-5.83a4.47,4.47,0,0,0-3.43-2.34l-6.57-.75,4.59-4.76a4.47,4.47,0,0,0,1.16-4l-1.32-6.48,5.94,2.9a4.47,4.47,0,0,0,4.15-.13l5.75-3.25-.92,6.54a4.46,4.46,0,0,0,1.4,3.91l4.87,4.47Z"/><polygon class="cls-1" points="744.34 230.65 730.58 237.27 715.58 232.11 718.12 248.15 708.77 256.94 723.59 261.13 730.62 271.82 738.46 260.31 752.96 257.56 743.04 244.92 744.34 230.65"/><path d="M760.46,259.25a5,5,0,0,0-1.41-5l-10.9-10,2.05-14.64a5,5,0,0,0-7.35-5L730,231.85l-13.29-6.48a5,5,0,0,0-7,5.45l2.94,14.49-10.27,10.64a5,5,0,0,0,3,8.37L720,266,727,279a5,5,0,0,0,8.89-.27L742,265.32l14.56-2.57A5,5,0,0,0,760.46,259.25ZM737.72,256a5,5,0,0,0-3.65,2.83l-3,6.68L727.57,259a5,5,0,0,0-3.82-2.6l-7.3-.83,5.1-5.28a5,5,0,0,0,1.29-4.43l-1.46-7.19,6.6,3.22a5,5,0,0,0,4.61-.14l6.39-3.61-1,7.27a5,5,0,0,0,1.56,4.34l5.41,5Z"/></svg>