<svg id="Layer_2" data-name="Layer 2" xmlns="http://www.w3.org/2000/svg" viewBox="0 0 900 900"><defs><style>.cls-1{fill:#fff;}</style></defs><title>Artboard 1 copy 6</title><circle class="cls-1" cx="448" cy="823" r="46"/><path d="M450,785.47a48,48,0,1,0,48,48A48.09,48.09,0,0,0,450,785.47Zm43.86,37.06-7.94-.45a1.41,1.41,0,0,0-1.08,2.41l2.65,2.65a2.49,2.49,0,0,1-.16,3.66c-1.29,1.08-2,1.65-2.47,1.95a89.23,89.23,0,0,1-5.59-7l.82-2.78a3.08,3.08,0,0,0-1.52-3.58l-11.11-5.81a1.41,1.41,0,0,0-1.1-.09l-5.93,2a.15.15,0,0,1-.13,0l-2.54-2a.14.14,0,0,1-.06-.12.14.14,0,0,1,0-.09l8.35-3.42a1.41,1.41,0,0,0,.1-2.57l-5.83-2.92,3.34-4.41a6,6,0,0,1,4.91-2.36l2.83.08-1.09,1a1.41,1.41,0,0,0-.11,2l3.64,4.2a1.41,1.41,0,0,0,2,.09l4.77-4.58A45.24,45.24,0,0,1,493.83,822.53Zm-15.32,17.42a1.41,1.41,0,0,0,1.22,1l2.42.24,0,0-7.38,23.24a.76.76,0,0,1-.73.53h-3.33a.77.77,0,0,1-.75-.62l-3.86-20.07a1.41,1.41,0,0,0-1.17-1.13l-7.18-1.11-5.05-11.5,10.1-4.69,12.54,2.28Zm-2.27-43.22q1.16.83,2.26,1.73L475,801.83l-1.77-2S476.16,797,476.23,796.72Zm-39-5.87a1.36,1.36,0,0,1-.33,1.05,5.2,5.2,0,0,0-.67,1l-4.79,9.13a1.66,1.66,0,0,1-1.42.89l-2.94.09a6.69,6.69,0,0,0-2.67.68,1.4,1.4,0,0,1-1.07,0,1.36,1.36,0,0,1-.79-.72s-1.84-4-1.83-4A45.17,45.17,0,0,1,437,790.18,1.39,1.39,0,0,1,437.27,790.85ZM412.79,807.8l-.14,3a4.07,4.07,0,0,0,3.67,4.24,4.11,4.11,0,0,1,2.92,1.67,3.71,3.71,0,0,1,.65,3,5,5,0,0,1-.68,1.64L415,827.88a13.51,13.51,0,0,0-2,9.06l-8.23-3c0-.14,0-.28,0-.43A45,45,0,0,1,412.79,807.8ZM450,878.71A45.27,45.27,0,0,1,404.89,837l9.53,3.48s7.47,11,8.24,12.47c.5,1,4.21,10.23,4.21,10.23a8.12,8.12,0,0,1,.41,1.35c.51,2.38,2.75,9,11.84,11.3a1.41,1.41,0,0,0,1.67-.88,1.47,1.47,0,0,0-.15-1.27,15,15,0,0,1,1.9-18.78,1.41,1.41,0,0,0,.44-1.07l-.42-11.34a1.41,1.41,0,0,0-1.35-1.36l-10.15-.41-6.83-4a1.41,1.41,0,0,0-1-.16l-7.13,1.5a10.67,10.67,0,0,1,1.31-8.61l4.19-6.47a7.76,7.76,0,0,0,1.07-2.57,6.59,6.59,0,0,0-1.13-5.27,6.94,6.94,0,0,0-4.92-2.82,1.24,1.24,0,0,1-1.14-1.28l.32-7.07q1.3-1.5,2.74-2.89l1.51,3.22a4.18,4.18,0,0,0,2.39,2.17,4.25,4.25,0,0,0,3.23-.16,3.89,3.89,0,0,1,1.55-.41l2.94-.09a4.48,4.48,0,0,0,3.83-2.4l4.73-9a4.48,4.48,0,0,1,.47-.74,4.17,4.17,0,0,0,.9-3.08,4.26,4.26,0,0,0-.28-1.11,45.21,45.21,0,0,1,33.62,5.43l-4.8-.13a8.8,8.8,0,0,0-7.24,3.48l-4.34,5.73a1.47,1.47,0,0,0-.3.68,1.42,1.42,0,0,0,.77,1.47l4.57,2.28-5.76,2.37a3,3,0,0,0-1.47,3,3.07,3.07,0,0,0,1.19,2l2.47,1.92a3,3,0,0,0,2.76.47l5.36-1.79,10.58,5.53a.24.24,0,0,1,.12.29s-.94,3.26-1,3.38l-13.49-2.45a1.41,1.41,0,0,0-.85.11l-11.76,5.46a1.41,1.41,0,0,0-.7,1.85L455.52,844a1.41,1.41,0,0,0,1.08.83l7,1.07,3.67,19.1a3.59,3.59,0,0,0,3.52,2.91h3.33a3.58,3.58,0,0,0,3.42-2.5l7.38-23.24a2.86,2.86,0,0,0-.58-2.76,3,3,0,0,0-2-1l-1.36-.14-2.29-8.57c4.66,6.11,5.28,6.11,6,6.11s1.26-.2,4.43-2.86a5.31,5.31,0,0,0,.34-7.82l0,0,5,.29A45.23,45.23,0,0,1,450,878.71Zm-13.33-6.77a12.36,12.36,0,0,1-6.63-8.25c-.1-.42-.56-1.72-.56-1.72l-3.46-8.5a19.25,19.25,0,0,0-1.73-3.36l-6.39-9.58,5.4-1.14,6.67,3.92a1.42,1.42,0,0,0,.66.19l9.19.37.35,9.45C438.45,855.23,432.88,862.5,436.63,871.94Z"/></svg>