<svg id="Layer_2" data-name="Layer 2" xmlns="http://www.w3.org/2000/svg" viewBox="0 0 900 900"><title>Artboard 1 copy 5</title><path d="M675.67,776.34h0a22.51,22.51,0,0,0,3.72-.31,28.23,28.23,0,0,0,21.54-18.4A52.94,52.94,0,0,0,703,745.07l.64-7.61c.14-1.72.36-4.32-1-6.42s-3.88-3.15-7.28-3.15h-.64a24.48,24.48,0,0,0-15.09,6l-.73.66a8.48,8.48,0,0,1-4.27,2.52l-1,.33c-9.54,3.37-15.7,14.58-14,25.52a16.7,16.7,0,0,0,2.92,7.61C665.26,774.23,670.05,776.34,675.67,776.34Zm3.11-3.93a18.84,18.84,0,0,1-3.11.26h0a17.85,17.85,0,0,1-1.89-.1,4.81,4.81,0,0,1,9.16-1.28A22.58,22.58,0,0,1,678.78,772.41ZM697,757.65a4.43,4.43,0,1,1,2-8.63,36.43,36.43,0,0,1-1.51,7.45C697.32,756.86,697.17,757.26,697,757.65Zm-22.16-16.76.9-.3a11.9,11.9,0,0,0,5.61-3.3l.68-.61a20.8,20.8,0,0,1,12.82-5.11h.5c1.2,0,3.35.2,4.22,1.51.64,1,.57,2.42.43,4.09l-.64,7.61,0,.58a8.09,8.09,0,0,0-4,15.65,25,25,0,0,1-9.08,8.75,8.48,8.48,0,0,0-16.06,2,10.19,10.19,0,0,1-4.73-3.39,13.35,13.35,0,0,1-2.24-6C661.81,753.13,666.91,743.69,674.85,740.88Z"/><path d="M778,690.55,747.9,720.62a1.83,1.83,0,0,0,2.59,2.59l30.06-30.06a1.83,1.83,0,0,0-2.59-2.59Z"/><path d="M735,733.48l-3.63,3.61a1.83,1.83,0,0,0,2.59,2.6l3.63-3.61a1.83,1.83,0,1,0-2.59-2.6Z"/><path d="M725.45,743.14c-1.86,1.91-32.45,32.17-32.45,32.17-3.09,2.77-6,5.4-9.7,6.81a19.9,19.9,0,0,1-11.18.93,1.83,1.83,0,0,0-.77,3.59,22.45,22.45,0,0,0,4.71.49,24,24,0,0,0,8.56-1.59c4.32-1.66,7.63-4.63,10.83-7.51,0,0,30.77-30.44,32.63-32.35a1.83,1.83,0,1,0-2.63-2.56Z"/><path d="M665.73,780.94a20.47,20.47,0,0,1-2.85-1.79,1.83,1.83,0,1,0-2.2,2.93A24.2,24.2,0,0,0,664,784.2a1.83,1.83,0,1,0,1.69-3.26Z"/><path d="M656.25,747.07a1.83,1.83,0,0,0-3.06-2c-6.11,9.25-5.52,21.41,1.52,31a1.83,1.83,0,0,0,3-2.18C651.55,765.53,651,755,656.25,747.07Z"/><path d="M661.3,741.11l25-25.35a1.83,1.83,0,1,0-2.61-2.58l-25,25.35a1.83,1.83,0,0,0,2.61,2.58Z"/><path d="M690.36,710.9a1.83,1.83,0,0,0,1.29-.53l2-2a1.83,1.83,0,1,0-2.58-2.61l-2,2a1.83,1.83,0,0,0,1.29,3.14Z"/><path d="M704.54,696.84a1.83,1.83,0,0,0,1.29-.53L774.52,628a1.83,1.83,0,1,0-2.59-2.6l-68.68,68.33a1.83,1.83,0,0,0,1.29,3.13Z"/><path d="M738.49,674.81a1.83,1.83,0,0,0-2.59,0l-46.24,46.24a1.83,1.83,0,0,0,2.59,2.59l46.24-46.24A1.84,1.84,0,0,0,738.49,674.81Z"/><path d="M771.64,656.3a1.83,1.83,0,0,0-2.59,0l-46,46a1.83,1.83,0,0,0,2.59,2.59l46-46A1.83,1.83,0,0,0,771.64,656.3Z"/><path d="M716.74,708.6,708.33,717a1.83,1.83,0,0,0,2.59,2.59l8.41-8.41a1.83,1.83,0,1,0-2.59-2.59Z"/><path d="M755.85,684.12l-3.73,3.73a1.83,1.83,0,0,0,2.59,2.59l3.73-3.73a1.83,1.83,0,0,0-2.59-2.59Z"/><path d="M738.78,701.2l-30.92,30.92a1.83,1.83,0,0,0,2.59,2.59l30.92-30.92a1.83,1.83,0,0,0-2.59-2.59Z"/><path d="M794.46,648.11a1.83,1.83,0,0,0-2.59,0l-31.68,31.68a1.83,1.83,0,0,0,2.59,2.59l31.68-31.68A1.83,1.83,0,0,0,794.46,648.11Z"/><path d="M710.73,749.07l21.14-21.15a1.83,1.83,0,1,0-2.59-2.59l-21.14,21.15a1.83,1.83,0,0,0,2.59,2.59Z"/><path d="M784.6,670l-10.72,10.72a1.83,1.83,0,0,0,2.59,2.59l10.72-10.72A1.83,1.83,0,1,0,784.6,670Z"/><path d="M676.2,757.22a6.66,6.66,0,1,0-6.66-6.66A6.67,6.67,0,0,0,676.2,757.22Zm0-9.65a3,3,0,1,1-3,3A3,3,0,0,1,676.2,747.57Z"/></svg>